<svg width="24" height="23" viewBox="0 0 24 23" fill="none" xmlns="http://www.w3.org/2000/svg">
<g id="&#240;&#159;&#166;&#134; icon &#34;shop alt&#34;">
<path id="Vector" d="M21.5352 1H17.053L17.6144 6.61446C17.6144 6.61446 18.7373 7.73735 20.4217 7.73735C21.631 7.73735 22.4544 7.15844 22.8227 6.83196C22.9695 6.70184 23.0232 6.50319 22.9909 6.30972L22.1998 1.56297C22.1456 1.23811 21.8646 1 21.5352 1Z" stroke="black" stroke-width="2"/>
<path id="Vector_2" d="M17.053 1L17.6145 6.61446C17.6145 6.61446 16.4916 7.73735 14.8072 7.73735C13.1229 7.73735 12 6.61446 12 6.61446V1H17.053Z" stroke="black" stroke-width="2"/>
<path id="Vector_3" d="M12 1V6.61446C12 6.61446 10.8771 7.73735 9.19273 7.73735C7.50839 7.73735 6.3855 6.61446 6.3855 6.61446L6.94694 1H12Z" stroke="black" stroke-width="2"/>
<path id="Vector_4" d="M6.947 1H2.46472C2.13537 1 1.8543 1.23811 1.80016 1.56297L1.00902 6.30973C0.976785 6.50319 1.03049 6.70184 1.17725 6.83196C1.54547 7.15844 2.36891 7.73735 3.5783 7.73735C5.26264 7.73735 6.38555 6.61446 6.38555 6.61446L6.947 1Z" stroke="black" stroke-width="2"/>
<path id="Vector_5" d="M1.90137 7.73737V18.9663C1.90137 20.2066 2.90684 21.2121 4.14715 21.2121H19.8676C21.108 21.2121 22.1134 20.2066 22.1134 18.9663V7.73737" stroke="black" stroke-width="2"/>
<path id="Vector_6" d="M15.1891 21.212V14.4747C15.1891 13.2343 14.1837 12.2289 12.9433 12.2289H10.6976C9.45725 12.2289 8.45178 13.2343 8.45178 14.4747V21.212" stroke="black" stroke-width="2" stroke-miterlimit="16"/>
</g>
</svg>
